<svg xmlns="http://www.w3.org/2000/svg" width="980" height="560" viewBox="0 0 980 560">
<rect width="100%" height="100%" fill="#ffffff"/>
<text x="490.0" y="34.0" font-size="22" font-weight="bold" text-anchor="middle" font-family="Arial, sans-serif" fill="#222">Falhas agregadas — Carga hibrida dos tres posts</text>
<text x="490.0" y="542.0" font-size="14" font-weight="normal" text-anchor="middle" font-family="Arial, sans-serif" fill="#222">Número de usuários</text>
<g transform="translate(24,280.0) rotate(-90)"><text x="0.0" y="0.0" font-size="14" font-weight="normal" text-anchor="middle" font-family="Arial, sans-serif" fill="#222">Taxa de falhas (%)</text></g>
<line x1="90" y1="450" x2="950" y2="450" stroke="#333" stroke-width="1.2"/>
<line x1="90" y1="450" x2="90" y2="70" stroke="#333" stroke-width="1.2"/>
<line x1="90" y1="450.0" x2="950" y2="450.0" stroke="#d8dee4" stroke-width="1"/>
<text x="78.0" y="454.0" font-size="11" font-weight="normal" text-anchor="end" font-family="Arial, sans-serif" fill="#555">0.0</text>
<line x1="90" y1="374.0" x2="950" y2="374.0" stroke="#d8dee4" stroke-width="1"/>
<text x="78.0" y="378.0" font-size="11" font-weight="normal" text-anchor="end" font-family="Arial, sans-serif" fill="#555">3.0</text>
<line x1="90" y1="298.0" x2="950" y2="298.0" stroke="#d8dee4" stroke-width="1"/>
<text x="78.0" y="302.0" font-size="11" font-weight="normal" text-anchor="end" font-family="Arial, sans-serif" fill="#555">6.0</text>
<line x1="90" y1="222.0" x2="950" y2="222.0" stroke="#d8dee4" stroke-width="1"/>
<text x="78.0" y="226.0" font-size="11" font-weight="normal" text-anchor="end" font-family="Arial, sans-serif" fill="#555">9.0</text>
<line x1="90" y1="146.0" x2="950" y2="146.0" stroke="#d8dee4" stroke-width="1"/>
<text x="78.0" y="150.0" font-size="11" font-weight="normal" text-anchor="end" font-family="Arial, sans-serif" fill="#555">12.0</text>
<line x1="90" y1="70.0" x2="950" y2="70.0" stroke="#d8dee4" stroke-width="1"/>
<text x="78.0" y="74.0" font-size="11" font-weight="normal" text-anchor="end" font-family="Arial, sans-serif" fill="#555">15.0</text>
<line x1="90" y1="146.0" x2="950" y2="146.0" stroke="#b22222" stroke-width="2" stroke-dasharray="7 5"/>
<rect x="134.5" y="450.0" width="38.0" height="0.0" fill="#f6bd60" stroke="#333" stroke-width="0.8"/>
<rect x="176.5" y="393.0" width="38.0" height="57.0" fill="#84a59d" stroke="#333" stroke-width="0.8"/>
<rect x="218.5" y="450.0" width="38.0" height="0.0" fill="#f28482" stroke="#333" stroke-width="0.8"/>
<text x="197.5" y="474.0" font-size="12" font-weight="normal" text-anchor="middle" font-family="Arial, sans-serif" fill="#222">12</text>
<rect x="349.5" y="450.0" width="38.0" height="0.0" fill="#f6bd60" stroke="#333" stroke-width="0.8"/>
<rect x="391.5" y="450.0" width="38.0" height="0.0" fill="#84a59d" stroke="#333" stroke-width="0.8"/>
<rect x="433.5" y="450.0" width="38.0" height="0.0" fill="#f28482" stroke="#333" stroke-width="0.8"/>
<text x="412.5" y="474.0" font-size="12" font-weight="normal" text-anchor="middle" font-family="Arial, sans-serif" fill="#222">48</text>
<rect x="564.5" y="450.0" width="38.0" height="0.0" fill="#f6bd60" stroke="#333" stroke-width="0.8"/>
<rect x="606.5" y="368.1" width="38.0" height="81.9" fill="#84a59d" stroke="#333" stroke-width="0.8"/>
<rect x="648.5" y="341.4" width="38.0" height="108.6" fill="#f28482" stroke="#333" stroke-width="0.8"/>
<text x="627.5" y="474.0" font-size="12" font-weight="normal" text-anchor="middle" font-family="Arial, sans-serif" fill="#222">300</text>
<rect x="779.5" y="450.0" width="38.0" height="0.0" fill="#f6bd60" stroke="#333" stroke-width="0.8"/>
<text x="842.5" y="474.0" font-size="12" font-weight="normal" text-anchor="middle" font-family="Arial, sans-serif" fill="#222">500</text>
<rect x="750" y="42" width="14" height="14" fill="#f6bd60" stroke="#333" stroke-width="0.6"/>
<text x="772.0" y="53.0" font-size="12" font-weight="normal" text-anchor="start" font-family="Arial, sans-serif" fill="#222">1 instância</text>
<rect x="750" y="64" width="14" height="14" fill="#84a59d" stroke="#333" stroke-width="0.6"/>
<text x="772.0" y="75.0" font-size="12" font-weight="normal" text-anchor="start" font-family="Arial, sans-serif" fill="#222">2 instâncias</text>
<rect x="750" y="86" width="14" height="14" fill="#f28482" stroke="#333" stroke-width="0.6"/>
<text x="772.0" y="97.0" font-size="12" font-weight="normal" text-anchor="start" font-family="Arial, sans-serif" fill="#222">3 instâncias</text>
<line x1="750" y1="115" x2="764" y2="115" stroke="#b22222" stroke-width="2" stroke-dasharray="7 5"/>
<text x="772.0" y="119.0" font-size="12" font-weight="normal" text-anchor="start" font-family="Arial, sans-serif" fill="#222">Limite de falhas (12%)</text>
</svg>