<svg xmlns="http://www.w3.org/2000/svg" width="980" height="580" viewBox="0 0 980 580">
<rect width="100%" height="100%" fill="#ffffff"/>
<text x="490.0" y="34.0" font-size="22" font-weight="bold" text-anchor="middle" font-family="Arial, sans-serif" fill="#222">Falhas por peso de conteudo</text>
<text x="490.0" y="58.0" font-size="12" font-weight="normal" text-anchor="middle" font-family="Arial, sans-serif" fill="#556">Comparacao por peso com a mesma quantidade de usuarios: Carga pesada (300 usuarios)</text>
<text x="490.0" y="562.0" font-size="14" font-weight="normal" text-anchor="middle" font-family="Arial, sans-serif" fill="#222">Peso do conteudo</text>
<g transform="translate(24,290.0) rotate(-90)"><text x="0.0" y="0.0" font-size="14" font-weight="normal" text-anchor="middle" font-family="Arial, sans-serif" fill="#222">Taxa de falhas (%)</text></g>
<line x1="90" y1="470" x2="950" y2="470" stroke="#333" stroke-width="1.2"/>
<line x1="90" y1="470" x2="90" y2="84" stroke="#333" stroke-width="1.2"/>
<line x1="90" y1="470.0" x2="950" y2="470.0" stroke="#d8dee4" stroke-width="1"/>
<text x="78.0" y="474.0" font-size="11" font-weight="normal" text-anchor="end" font-family="Arial, sans-serif" fill="#555">0.0</text>
<line x1="90" y1="392.8" x2="950" y2="392.8" stroke="#d8dee4" stroke-width="1"/>
<text x="78.0" y="396.8" font-size="11" font-weight="normal" text-anchor="end" font-family="Arial, sans-serif" fill="#555">1.6</text>
<line x1="90" y1="315.6" x2="950" y2="315.6" stroke="#d8dee4" stroke-width="1"/>
<text x="78.0" y="319.6" font-size="11" font-weight="normal" text-anchor="end" font-family="Arial, sans-serif" fill="#555">3.2</text>
<line x1="90" y1="238.4" x2="950" y2="238.4" stroke="#d8dee4" stroke-width="1"/>
<text x="78.0" y="242.4" font-size="11" font-weight="normal" text-anchor="end" font-family="Arial, sans-serif" fill="#555">4.7</text>
<line x1="90" y1="161.2" x2="950" y2="161.2" stroke="#d8dee4" stroke-width="1"/>
<text x="78.0" y="165.2" font-size="11" font-weight="normal" text-anchor="end" font-family="Arial, sans-serif" fill="#555">6.3</text>
<line x1="90" y1="84.0" x2="950" y2="84.0" stroke="#d8dee4" stroke-width="1"/>
<text x="78.0" y="88.0" font-size="11" font-weight="normal" text-anchor="end" font-family="Arial, sans-serif" fill="#555">7.9</text>
<line x1="90" y1="-115.4" x2="950" y2="-115.4" stroke="#b22222" stroke-width="2" stroke-dasharray="7 5"/>
<rect x="134.5" y="470.0" width="38.0" height="0.0" fill="#f6bd60" stroke="#333" stroke-width="0.8"/>
<rect x="176.5" y="408.6" width="38.0" height="61.4" fill="#84a59d" stroke="#333" stroke-width="0.8"/>
<rect x="218.5" y="373.1" width="38.0" height="96.9" fill="#f28482" stroke="#333" stroke-width="0.8"/>
<text x="197.5" y="494.0" font-size="12" font-weight="normal" text-anchor="middle" font-family="Arial, sans-serif" fill="#222">Imagem 300 KB</text>
<rect x="349.5" y="470.0" width="38.0" height="0.0" fill="#f6bd60" stroke="#333" stroke-width="0.8"/>
<rect x="391.5" y="134.3" width="38.0" height="335.7" fill="#84a59d" stroke="#333" stroke-width="0.8"/>
<rect x="433.5" y="194.7" width="38.0" height="275.3" fill="#f28482" stroke="#333" stroke-width="0.8"/>
<text x="412.5" y="494.0" font-size="12" font-weight="normal" text-anchor="middle" font-family="Arial, sans-serif" fill="#222">Texto 400 KB</text>
<rect x="564.5" y="470.0" width="38.0" height="0.0" fill="#f6bd60" stroke="#333" stroke-width="0.8"/>
<rect x="606.5" y="318.2" width="38.0" height="151.8" fill="#84a59d" stroke="#333" stroke-width="0.8"/>
<rect x="648.5" y="376.9" width="38.0" height="93.1" fill="#f28482" stroke="#333" stroke-width="0.8"/>
<text x="627.5" y="494.0" font-size="12" font-weight="normal" text-anchor="middle" font-family="Arial, sans-serif" fill="#222">Imagem 1 MB</text>
<rect x="779.5" y="470.0" width="38.0" height="0.0" fill="#f6bd60" stroke="#333" stroke-width="0.8"/>
<rect x="821.5" y="266.8" width="38.0" height="203.2" fill="#84a59d" stroke="#333" stroke-width="0.8"/>
<rect x="863.5" y="417.9" width="38.0" height="52.1" fill="#f28482" stroke="#333" stroke-width="0.8"/>
<text x="842.5" y="494.0" font-size="12" font-weight="normal" text-anchor="middle" font-family="Arial, sans-serif" fill="#222">Hibrido</text>
<rect x="750" y="50" width="14" height="14" fill="#f6bd60" stroke="#333" stroke-width="0.6"/>
<text x="772.0" y="61.0" font-size="12" font-weight="normal" text-anchor="start" font-family="Arial, sans-serif" fill="#222">1 instancia</text>
<rect x="750" y="72" width="14" height="14" fill="#84a59d" stroke="#333" stroke-width="0.6"/>
<text x="772.0" y="83.0" font-size="12" font-weight="normal" text-anchor="start" font-family="Arial, sans-serif" fill="#222">2 instancias</text>
<rect x="750" y="94" width="14" height="14" fill="#f28482" stroke="#333" stroke-width="0.6"/>
<text x="772.0" y="105.0" font-size="12" font-weight="normal" text-anchor="start" font-family="Arial, sans-serif" fill="#222">3 instancias</text>
<line x1="750" y1="123" x2="764" y2="123" stroke="#b22222" stroke-width="2" stroke-dasharray="7 5"/>
<text x="772.0" y="127.0" font-size="12" font-weight="normal" text-anchor="start" font-family="Arial, sans-serif" fill="#222">Limite de falhas (12%)</text>
</svg>