<svg xmlns="http://www.w3.org/2000/svg" width="980" height="580" viewBox="0 0 980 580">
<rect width="100%" height="100%" fill="#ffffff"/>
<text x="490.0" y="34.0" font-size="22" font-weight="bold" text-anchor="middle" font-family="Arial, sans-serif" fill="#222">Latencia p95 por peso de conteudo</text>
<text x="490.0" y="58.0" font-size="12" font-weight="normal" text-anchor="middle" font-family="Arial, sans-serif" fill="#556">Comparacao por peso com a mesma quantidade de usuarios: Carga pesada (300 usuarios)</text>
<text x="490.0" y="562.0" font-size="14" font-weight="normal" text-anchor="middle" font-family="Arial, sans-serif" fill="#222">Peso do conteudo</text>
<g transform="translate(24,290.0) rotate(-90)"><text x="0.0" y="0.0" font-size="14" font-weight="normal" text-anchor="middle" font-family="Arial, sans-serif" fill="#222">p95 de resposta (s)</text></g>
<line x1="90" y1="470" x2="950" y2="470" stroke="#333" stroke-width="1.2"/>
<line x1="90" y1="470" x2="90" y2="84" stroke="#333" stroke-width="1.2"/>
<line x1="90" y1="470.0" x2="950" y2="470.0" stroke="#d8dee4" stroke-width="1"/>
<text x="78.0" y="474.0" font-size="11" font-weight="normal" text-anchor="end" font-family="Arial, sans-serif" fill="#555">0.0</text>
<line x1="90" y1="392.8" x2="950" y2="392.8" stroke="#d8dee4" stroke-width="1"/>
<text x="78.0" y="396.8" font-size="11" font-weight="normal" text-anchor="end" font-family="Arial, sans-serif" fill="#555">0.7</text>
<line x1="90" y1="315.6" x2="950" y2="315.6" stroke="#d8dee4" stroke-width="1"/>
<text x="78.0" y="319.6" font-size="11" font-weight="normal" text-anchor="end" font-family="Arial, sans-serif" fill="#555">1.5</text>
<line x1="90" y1="238.4" x2="950" y2="238.4" stroke="#d8dee4" stroke-width="1"/>
<text x="78.0" y="242.4" font-size="11" font-weight="normal" text-anchor="end" font-family="Arial, sans-serif" fill="#555">2.2</text>
<line x1="90" y1="161.2" x2="950" y2="161.2" stroke="#d8dee4" stroke-width="1"/>
<text x="78.0" y="165.2" font-size="11" font-weight="normal" text-anchor="end" font-family="Arial, sans-serif" fill="#555">2.9</text>
<line x1="90" y1="84.0" x2="950" y2="84.0" stroke="#d8dee4" stroke-width="1"/>
<text x="78.0" y="88.0" font-size="11" font-weight="normal" text-anchor="end" font-family="Arial, sans-serif" fill="#555">3.7</text>
<rect x="134.5" y="291.7" width="38.0" height="178.3" fill="#a8d0e6" stroke="#333" stroke-width="0.8"/>
<rect x="176.5" y="260.2" width="38.0" height="209.8" fill="#fde2a7" stroke="#333" stroke-width="0.8"/>
<rect x="218.5" y="228.8" width="38.0" height="241.2" fill="#f4a6a6" stroke="#333" stroke-width="0.8"/>
<text x="197.5" y="494.0" font-size="12" font-weight="normal" text-anchor="middle" font-family="Arial, sans-serif" fill="#222">Imagem 300 KB</text>
<rect x="349.5" y="239.2" width="38.0" height="230.8" fill="#a8d0e6" stroke="#333" stroke-width="0.8"/>
<rect x="391.5" y="186.8" width="38.0" height="283.2" fill="#fde2a7" stroke="#333" stroke-width="0.8"/>
<rect x="433.5" y="134.3" width="38.0" height="335.7" fill="#f4a6a6" stroke="#333" stroke-width="0.8"/>
<text x="412.5" y="494.0" font-size="12" font-weight="normal" text-anchor="middle" font-family="Arial, sans-serif" fill="#222">Texto 400 KB</text>
<rect x="564.5" y="281.2" width="38.0" height="188.8" fill="#a8d0e6" stroke="#333" stroke-width="0.8"/>
<rect x="606.5" y="239.2" width="38.0" height="230.8" fill="#fde2a7" stroke="#333" stroke-width="0.8"/>
<rect x="648.5" y="218.3" width="38.0" height="251.7" fill="#f4a6a6" stroke="#333" stroke-width="0.8"/>
<text x="627.5" y="494.0" font-size="12" font-weight="normal" text-anchor="middle" font-family="Arial, sans-serif" fill="#222">Imagem 1 MB</text>
<rect x="779.5" y="270.7" width="38.0" height="199.3" fill="#a8d0e6" stroke="#333" stroke-width="0.8"/>
<rect x="821.5" y="197.3" width="38.0" height="272.7" fill="#fde2a7" stroke="#333" stroke-width="0.8"/>
<rect x="863.5" y="249.7" width="38.0" height="220.3" fill="#f4a6a6" stroke="#333" stroke-width="0.8"/>
<text x="842.5" y="494.0" font-size="12" font-weight="normal" text-anchor="middle" font-family="Arial, sans-serif" fill="#222">Hibrido</text>
<rect x="750" y="50" width="14" height="14" fill="#a8d0e6" stroke="#333" stroke-width="0.6"/>
<text x="772.0" y="61.0" font-size="12" font-weight="normal" text-anchor="start" font-family="Arial, sans-serif" fill="#222">1 instancia</text>
<rect x="750" y="72" width="14" height="14" fill="#fde2a7" stroke="#333" stroke-width="0.6"/>
<text x="772.0" y="83.0" font-size="12" font-weight="normal" text-anchor="start" font-family="Arial, sans-serif" fill="#222">2 instancias</text>
<rect x="750" y="94" width="14" height="14" fill="#f4a6a6" stroke="#333" stroke-width="0.6"/>
<text x="772.0" y="105.0" font-size="12" font-weight="normal" text-anchor="start" font-family="Arial, sans-serif" fill="#222">3 instancias</text>
</svg>