<svg xmlns="http://www.w3.org/2000/svg" width="980" height="560" viewBox="0 0 980 560">
<rect width="100%" height="100%" fill="#ffffff"/>
<text x="490.0" y="34.0" font-size="22" font-weight="bold" text-anchor="middle" font-family="Arial, sans-serif" fill="#222">Throughput — Post com texto ~400KB</text>
<text x="490.0" y="542.0" font-size="14" font-weight="normal" text-anchor="middle" font-family="Arial, sans-serif" fill="#222">Número de instâncias</text>
<g transform="translate(24,280.0) rotate(-90)"><text x="0.0" y="0.0" font-size="14" font-weight="normal" text-anchor="middle" font-family="Arial, sans-serif" fill="#222">Requisições por segundo</text></g>
<line x1="90" y1="450" x2="950" y2="450" stroke="#333" stroke-width="1.2"/>
<line x1="90" y1="450" x2="90" y2="70" stroke="#333" stroke-width="1.2"/>
<line x1="90" y1="450.0" x2="950" y2="450.0" stroke="#d8dee4" stroke-width="1"/>
<text x="78.0" y="454.0" font-size="11" font-weight="normal" text-anchor="end" font-family="Arial, sans-serif" fill="#555">0.0</text>
<line x1="90" y1="374.0" x2="950" y2="374.0" stroke="#d8dee4" stroke-width="1"/>
<text x="78.0" y="378.0" font-size="11" font-weight="normal" text-anchor="end" font-family="Arial, sans-serif" fill="#555">22.5</text>
<line x1="90" y1="298.0" x2="950" y2="298.0" stroke="#d8dee4" stroke-width="1"/>
<text x="78.0" y="302.0" font-size="11" font-weight="normal" text-anchor="end" font-family="Arial, sans-serif" fill="#555">45.0</text>
<line x1="90" y1="222.0" x2="950" y2="222.0" stroke="#d8dee4" stroke-width="1"/>
<text x="78.0" y="226.0" font-size="11" font-weight="normal" text-anchor="end" font-family="Arial, sans-serif" fill="#555">67.5</text>
<line x1="90" y1="146.0" x2="950" y2="146.0" stroke="#d8dee4" stroke-width="1"/>
<text x="78.0" y="150.0" font-size="11" font-weight="normal" text-anchor="end" font-family="Arial, sans-serif" fill="#555">90.1</text>
<line x1="90" y1="70.0" x2="950" y2="70.0" stroke="#d8dee4" stroke-width="1"/>
<text x="78.0" y="74.0" font-size="11" font-weight="normal" text-anchor="end" font-family="Arial, sans-serif" fill="#555">112.6</text>
<rect x="149.3" y="430.4" width="38.0" height="19.6" fill="#c8e3c5" stroke="#333" stroke-width="0.8"/>
<rect x="191.3" y="374.7" width="38.0" height="75.3" fill="#bdd7e4" stroke="#333" stroke-width="0.8"/>
<rect x="233.3" y="171.2" width="38.0" height="278.8" fill="#fce5b6" stroke="#333" stroke-width="0.8"/>
<rect x="275.3" y="172.0" width="38.0" height="278.0" fill="#c8e3c5" stroke="#333" stroke-width="0.8"/>
<text x="233.3" y="474.0" font-size="12" font-weight="normal" text-anchor="middle" font-family="Arial, sans-serif" fill="#222">1</text>
<rect x="436.0" y="430.8" width="38.0" height="19.2" fill="#c8e3c5" stroke="#333" stroke-width="0.8"/>
<rect x="478.0" y="375.5" width="38.0" height="74.5" fill="#bdd7e4" stroke="#333" stroke-width="0.8"/>
<rect x="520.0" y="119.6" width="38.0" height="330.4" fill="#fce5b6" stroke="#333" stroke-width="0.8"/>
<text x="520.0" y="474.0" font-size="12" font-weight="normal" text-anchor="middle" font-family="Arial, sans-serif" fill="#222">2</text>
<rect x="722.7" y="430.4" width="38.0" height="19.6" fill="#c8e3c5" stroke="#333" stroke-width="0.8"/>
<rect x="764.7" y="375.9" width="38.0" height="74.1" fill="#bdd7e4" stroke="#333" stroke-width="0.8"/>
<rect x="806.7" y="198.7" width="38.0" height="251.3" fill="#fce5b6" stroke="#333" stroke-width="0.8"/>
<text x="806.7" y="474.0" font-size="12" font-weight="normal" text-anchor="middle" font-family="Arial, sans-serif" fill="#222">3</text>
<rect x="750" y="42" width="14" height="14" fill="#c8e3c5" stroke="#333" stroke-width="0.6"/>
<text x="772.0" y="53.0" font-size="12" font-weight="normal" text-anchor="start" font-family="Arial, sans-serif" fill="#222">12 usuários</text>
<rect x="750" y="64" width="14" height="14" fill="#bdd7e4" stroke="#333" stroke-width="0.6"/>
<text x="772.0" y="75.0" font-size="12" font-weight="normal" text-anchor="start" font-family="Arial, sans-serif" fill="#222">48 usuários</text>
<rect x="750" y="86" width="14" height="14" fill="#fce5b6" stroke="#333" stroke-width="0.6"/>
<text x="772.0" y="97.0" font-size="12" font-weight="normal" text-anchor="start" font-family="Arial, sans-serif" fill="#222">300 usuários</text>
<rect x="750" y="108" width="14" height="14" fill="#c8e3c5" stroke="#333" stroke-width="0.6"/>
<text x="772.0" y="119.0" font-size="12" font-weight="normal" text-anchor="start" font-family="Arial, sans-serif" fill="#222">500 usuários</text>
</svg>