<svg xmlns="http://www.w3.org/2000/svg" width="980" height="580" viewBox="0 0 980 580">
<rect width="100%" height="100%" fill="#ffffff"/>
<text x="490.0" y="34.0" font-size="22" font-weight="bold" text-anchor="middle" font-family="Arial, sans-serif" fill="#222">Throughput por peso de conteudo</text>
<text x="490.0" y="58.0" font-size="12" font-weight="normal" text-anchor="middle" font-family="Arial, sans-serif" fill="#556">Comparacao por peso com a mesma quantidade de usuarios: Carga leve (24 usuarios)</text>
<text x="490.0" y="562.0" font-size="14" font-weight="normal" text-anchor="middle" font-family="Arial, sans-serif" fill="#222">Peso do conteudo</text>
<g transform="translate(24,290.0) rotate(-90)"><text x="0.0" y="0.0" font-size="14" font-weight="normal" text-anchor="middle" font-family="Arial, sans-serif" fill="#222">Requisicoes por segundo</text></g>
<line x1="90" y1="470" x2="950" y2="470" stroke="#333" stroke-width="1.2"/>
<line x1="90" y1="470" x2="90" y2="84" stroke="#333" stroke-width="1.2"/>
<line x1="90" y1="470.0" x2="950" y2="470.0" stroke="#d8dee4" stroke-width="1"/>
<text x="78.0" y="474.0" font-size="11" font-weight="normal" text-anchor="end" font-family="Arial, sans-serif" fill="#555">0.0</text>
<line x1="90" y1="392.8" x2="950" y2="392.8" stroke="#d8dee4" stroke-width="1"/>
<text x="78.0" y="396.8" font-size="11" font-weight="normal" text-anchor="end" font-family="Arial, sans-serif" fill="#555">4.9</text>
<line x1="90" y1="315.6" x2="950" y2="315.6" stroke="#d8dee4" stroke-width="1"/>
<text x="78.0" y="319.6" font-size="11" font-weight="normal" text-anchor="end" font-family="Arial, sans-serif" fill="#555">9.9</text>
<line x1="90" y1="238.4" x2="950" y2="238.4" stroke="#d8dee4" stroke-width="1"/>
<text x="78.0" y="242.4" font-size="11" font-weight="normal" text-anchor="end" font-family="Arial, sans-serif" fill="#555">14.8</text>
<line x1="90" y1="161.2" x2="950" y2="161.2" stroke="#d8dee4" stroke-width="1"/>
<text x="78.0" y="165.2" font-size="11" font-weight="normal" text-anchor="end" font-family="Arial, sans-serif" fill="#555">19.7</text>
<line x1="90" y1="84.0" x2="950" y2="84.0" stroke="#d8dee4" stroke-width="1"/>
<text x="78.0" y="88.0" font-size="11" font-weight="normal" text-anchor="end" font-family="Arial, sans-serif" fill="#555">24.6</text>
<rect x="134.5" y="134.3" width="38.0" height="335.7" fill="#c8e3c5" stroke="#333" stroke-width="0.8"/>
<rect x="176.5" y="141.3" width="38.0" height="328.7" fill="#bdd7e4" stroke="#333" stroke-width="0.8"/>
<rect x="218.5" y="136.8" width="38.0" height="333.2" fill="#fce5b6" stroke="#333" stroke-width="0.8"/>
<text x="197.5" y="494.0" font-size="12" font-weight="normal" text-anchor="middle" font-family="Arial, sans-serif" fill="#222">Imagem 300 KB</text>
<rect x="349.5" y="305.0" width="38.0" height="165.0" fill="#c8e3c5" stroke="#333" stroke-width="0.8"/>
<rect x="391.5" y="305.3" width="38.0" height="164.7" fill="#bdd7e4" stroke="#333" stroke-width="0.8"/>
<rect x="433.5" y="306.3" width="38.0" height="163.7" fill="#fce5b6" stroke="#333" stroke-width="0.8"/>
<text x="412.5" y="494.0" font-size="12" font-weight="normal" text-anchor="middle" font-family="Arial, sans-serif" fill="#222">Texto 400 KB</text>
<rect x="564.5" y="139.1" width="38.0" height="330.9" fill="#c8e3c5" stroke="#333" stroke-width="0.8"/>
<rect x="606.5" y="143.2" width="38.0" height="326.8" fill="#bdd7e4" stroke="#333" stroke-width="0.8"/>
<rect x="648.5" y="142.5" width="38.0" height="327.5" fill="#fce5b6" stroke="#333" stroke-width="0.8"/>
<text x="627.5" y="494.0" font-size="12" font-weight="normal" text-anchor="middle" font-family="Arial, sans-serif" fill="#222">Imagem 1 MB</text>
<rect x="779.5" y="172.8" width="38.0" height="297.2" fill="#c8e3c5" stroke="#333" stroke-width="0.8"/>
<rect x="821.5" y="176.4" width="38.0" height="293.6" fill="#bdd7e4" stroke="#333" stroke-width="0.8"/>
<rect x="863.5" y="172.3" width="38.0" height="297.7" fill="#fce5b6" stroke="#333" stroke-width="0.8"/>
<text x="842.5" y="494.0" font-size="12" font-weight="normal" text-anchor="middle" font-family="Arial, sans-serif" fill="#222">Hibrido</text>
<rect x="750" y="50" width="14" height="14" fill="#c8e3c5" stroke="#333" stroke-width="0.6"/>
<text x="772.0" y="61.0" font-size="12" font-weight="normal" text-anchor="start" font-family="Arial, sans-serif" fill="#222">1 instancia</text>
<rect x="750" y="72" width="14" height="14" fill="#bdd7e4" stroke="#333" stroke-width="0.6"/>
<text x="772.0" y="83.0" font-size="12" font-weight="normal" text-anchor="start" font-family="Arial, sans-serif" fill="#222">2 instancias</text>
<rect x="750" y="94" width="14" height="14" fill="#fce5b6" stroke="#333" stroke-width="0.6"/>
<text x="772.0" y="105.0" font-size="12" font-weight="normal" text-anchor="start" font-family="Arial, sans-serif" fill="#222">3 instancias</text>
</svg>