<svg xmlns="http://www.w3.org/2000/svg" width="980" height="560" viewBox="0 0 980 560">
<rect width="100%" height="100%" fill="#ffffff"/>
<text x="490.0" y="34.0" font-size="22" font-weight="bold" text-anchor="middle" font-family="Arial, sans-serif" fill="#222">Throughput — Post com imagem ~300KB</text>
<text x="490.0" y="542.0" font-size="14" font-weight="normal" text-anchor="middle" font-family="Arial, sans-serif" fill="#222">Número de instâncias</text>
<g transform="translate(24,280.0) rotate(-90)"><text x="0.0" y="0.0" font-size="14" font-weight="normal" text-anchor="middle" font-family="Arial, sans-serif" fill="#222">Requisições por segundo</text></g>
<line x1="90" y1="450" x2="950" y2="450" stroke="#333" stroke-width="1.2"/>
<line x1="90" y1="450" x2="90" y2="70" stroke="#333" stroke-width="1.2"/>
<line x1="90" y1="450.0" x2="950" y2="450.0" stroke="#d8dee4" stroke-width="1"/>
<text x="78.0" y="454.0" font-size="11" font-weight="normal" text-anchor="end" font-family="Arial, sans-serif" fill="#555">0.0</text>
<line x1="90" y1="374.0" x2="950" y2="374.0" stroke="#d8dee4" stroke-width="1"/>
<text x="78.0" y="378.0" font-size="11" font-weight="normal" text-anchor="end" font-family="Arial, sans-serif" fill="#555">25.6</text>
<line x1="90" y1="298.0" x2="950" y2="298.0" stroke="#d8dee4" stroke-width="1"/>
<text x="78.0" y="302.0" font-size="11" font-weight="normal" text-anchor="end" font-family="Arial, sans-serif" fill="#555">51.2</text>
<line x1="90" y1="222.0" x2="950" y2="222.0" stroke="#d8dee4" stroke-width="1"/>
<text x="78.0" y="226.0" font-size="11" font-weight="normal" text-anchor="end" font-family="Arial, sans-serif" fill="#555">76.8</text>
<line x1="90" y1="146.0" x2="950" y2="146.0" stroke="#d8dee4" stroke-width="1"/>
<text x="78.0" y="150.0" font-size="11" font-weight="normal" text-anchor="end" font-family="Arial, sans-serif" fill="#555">102.3</text>
<line x1="90" y1="70.0" x2="950" y2="70.0" stroke="#d8dee4" stroke-width="1"/>
<text x="78.0" y="74.0" font-size="11" font-weight="normal" text-anchor="end" font-family="Arial, sans-serif" fill="#555">127.9</text>
<rect x="149.3" y="433.0" width="38.0" height="17.0" fill="#c8e3c5" stroke="#333" stroke-width="0.8"/>
<rect x="191.3" y="383.6" width="38.0" height="66.4" fill="#bdd7e4" stroke="#333" stroke-width="0.8"/>
<rect x="233.3" y="119.6" width="38.0" height="330.4" fill="#fce5b6" stroke="#333" stroke-width="0.8"/>
<rect x="275.3" y="149.8" width="38.0" height="300.2" fill="#c8e3c5" stroke="#333" stroke-width="0.8"/>
<text x="233.3" y="474.0" font-size="12" font-weight="normal" text-anchor="middle" font-family="Arial, sans-serif" fill="#222">1</text>
<rect x="436.0" y="432.7" width="38.0" height="17.3" fill="#c8e3c5" stroke="#333" stroke-width="0.8"/>
<rect x="478.0" y="384.2" width="38.0" height="65.8" fill="#bdd7e4" stroke="#333" stroke-width="0.8"/>
<rect x="520.0" y="160.7" width="38.0" height="289.3" fill="#fce5b6" stroke="#333" stroke-width="0.8"/>
<text x="520.0" y="474.0" font-size="12" font-weight="normal" text-anchor="middle" font-family="Arial, sans-serif" fill="#222">2</text>
<rect x="722.7" y="432.7" width="38.0" height="17.3" fill="#c8e3c5" stroke="#333" stroke-width="0.8"/>
<rect x="764.7" y="383.6" width="38.0" height="66.4" fill="#bdd7e4" stroke="#333" stroke-width="0.8"/>
<rect x="806.7" y="164.2" width="38.0" height="285.8" fill="#fce5b6" stroke="#333" stroke-width="0.8"/>
<text x="806.7" y="474.0" font-size="12" font-weight="normal" text-anchor="middle" font-family="Arial, sans-serif" fill="#222">3</text>
<rect x="750" y="42" width="14" height="14" fill="#c8e3c5" stroke="#333" stroke-width="0.6"/>
<text x="772.0" y="53.0" font-size="12" font-weight="normal" text-anchor="start" font-family="Arial, sans-serif" fill="#222">12 usuários</text>
<rect x="750" y="64" width="14" height="14" fill="#bdd7e4" stroke="#333" stroke-width="0.6"/>
<text x="772.0" y="75.0" font-size="12" font-weight="normal" text-anchor="start" font-family="Arial, sans-serif" fill="#222">48 usuários</text>
<rect x="750" y="86" width="14" height="14" fill="#fce5b6" stroke="#333" stroke-width="0.6"/>
<text x="772.0" y="97.0" font-size="12" font-weight="normal" text-anchor="start" font-family="Arial, sans-serif" fill="#222">300 usuários</text>
<rect x="750" y="108" width="14" height="14" fill="#c8e3c5" stroke="#333" stroke-width="0.6"/>
<text x="772.0" y="119.0" font-size="12" font-weight="normal" text-anchor="start" font-family="Arial, sans-serif" fill="#222">500 usuários</text>
</svg>